#!OML:ASF F:\VICON\USERDATA\INSTALL\rory3\rory3.ASF
:FULLY-SPECIFIED
:DEGREES
36
root 1.142494846364893 17.90087112852688 4.132413096965523 -2.5791641891668626 -7.195820401511721 -0.5158581360734034
lfemur -5.785290200892575 -0.5023873400111325 -24.335218415886413
ltibia 30.029014702933438
lfoot -8.52236155777279 -0.8409006097564524
ltoes -1.0256227717800037
rfemur -23.179842777179708 0.016346765783097794 22.34229366996154
rtibia 59.27967090949147
rfoot -2.373431484512472 -11.392750840246897
rtoes 8.099990045069788
lowerback 12.171319025960337 1.401144825812359 0.2503090211489294
upperback -0.2654015041772303 1.88479293590195 1.0523848568388732
thorax -6.713105386383425 0.8905611467559058 1.125188126086463
lowerneck -16.50052453190834 -3.370030667522204 -2.012989983245414
upperneck 20.52497547870874 -4.57037499869601 1.991201933491951
head 9.258801005293632 -2.112758990137133 0.36044390788690206
lclavicle 2.989722832333135e-16 5.530609402458123e-17
lhumerus -31.550657943517166 6.051496967576898 80.05904920534758
lradius 23.476126050841003
lwrist 7.007788352290812
lhand -29.0248809174846 17.97868487133862
lfingers 7.125020000000001
lthumb -2.644023210786793 47.47161248054367
rclavicle 3.052027939324398e-16 5.929724302915778e-17
rhumerus -28.168269733632968 -21.427562846177523 -79.90411724178011
rradius 29.23327969869044
rwrist 4.933298880262939
rhand -17.470724411091826 23.29561406103259
rfingers 7.125020000000001
rthumb 8.804746049919535 -6.268603913234529
37
root 1.1468329969478206 17.70735558361799 5.65467157084345 -2.9264138399665205 -6.307070125407025 -0.3251992998342432
lfemur -4.913346690858959 -0.47013383656110297 -24.59919767161024
ltibia 31.848195708856764
lfoot -9.857062978995337 0.35110716546044873
ltoes -2.3182409936326964
rfemur -25.53907956284762 -1.7444695009712907 22.31934393115695
rtibia 54.68743247550421
rfoot -3.151801690194424 -11.642771383420378
rtoes 6.4082344400589575
lowerback 12.582380230388233 1.1624706102808127 0.3582816325217182
upperback -0.3079518442057225 1.615424867955363 1.1938792385343517
thorax -6.819708541517646 0.7859807715968948 1.2540018190047668
lowerneck -16.488568839584975 -3.223645854463018 -1.9714777341397738
upperneck 20.56668755798321 -4.256427617299458 1.7043201976279119
head 9.231542068867856 -2.0006276000412755 0.3229832080674774
lclavicle 2.9801872109136026e-16 5.463171098000388e-17
lhumerus -30.849522472970115 4.8918604955124785 80.21908352852465
lradius 24.851649896300046
lwrist 6.94254336378067
lhand -28.842626588220554 19.032863031441313
lfingers 7.125020000000001
lthumb -2.613961575192057 48.060771423061645
rclavicle 3.069235771176366e-16 6.061371509600354e-17
rhumerus -29.429675024356573 -21.727493355593047 -79.69003237588029
rradius 29.43763678438159
rwrist 4.120221303642831
rhand -17.487139711922 23.564641722116576
rfingers 7.125020000000001
rthumb 8.796133584081385 -5.9723549628451575
38
root 1.1365118067566178 17.486113957217263 7.09563006186875 -3.1336102111488007 -5.677408406332728 -0.32152673939052745
lfemur -3.69741118717773 -0.12256301992784424 -24.404910215171142
ltibia 33.17359599334937
lfoot -11.224304923745958 1.4769548665480432
ltoes -2.820627064977974
rfemur -27.36356323537744 -2.991769087186796 22.673330068766152
rtibia 48.14738413291695
rfoot -2.7249673184420296 -12.66496668085729
rtoes 4.891882111006082
lowerback 13.064977505818307 1.0228745064970837 0.36358513860889274
upperback -0.33275672064343575 1.411322220573874 1.3261454034890223
thorax -6.914847931175263 0.6817129403005646 1.4645536256717029
lowerneck -16.508269008963353 -3.102146028185916 -1.9628252911297297
upperneck 20.57967061206666 -3.9974012890818598 1.4440829379729478
head 9.222872466292937 -1.9102327641266377 0.29237201716057754
lclavicle 2.992797999162764e-16 5.552759040717068e-17
lhumerus -30.125603597912377 3.8692799204424615 80.34540546092498
lradius 26.193920588267414
lwrist 7.472876327213741
lhand -28.68085005620141 19.609223790614987
lfingers 7.125020000000001
lthumb -2.4475121393831687 48.72815236892692
rclavicle 3.065177003453868e-16 6.024186515025239e-17
rhumerus -30.809366996551763 -21.312663881047207 -79.57745437319323
rradius 30.236745413705457
rwrist 2.6569043903366962
rhand -17.601273727893357 23.43840204369513
rfingers 7.125020000000001
rthumb 8.681556356466785 -6.197480439278355
39
root 1.1103847185126396 17.406016982150067 9.280242248976226 -3.3152064741605445 -5.296836887885442 0.1750804443154652
lfemur -2.2523376606983305 0.15387369988584831 -24.604802487414133
ltibia 33.564590704493035
lfoot -13.312459471980787 1.5625292682513576
ltoes -3.865147205734578
rfemur -28.45789726615595 -3.550536610641873 22.598278056504782
rtibia 39.99028958963807
rfoot -1.5005135448054885 -13.877453482535358
rtoes 3.3687478590528412
lowerback 12.999725226921523 0.8627318923268474 -0.03972868222156667
upperback -0.182294408608219 1.1433911010123383 1.3869293212676037
thorax -6.917910241605104 0.5504171577561688 1.6879699230390621
lowerneck -16.548268659323142 -3.0164180058116137 -1.9561712944924106
upperneck 20.538894902750503 -3.826755595026958 1.3277574601793982
head 9.255686346383532 -1.8531129729438167 0.2911562199316581
lclavicle 2.998106371265908e-16 5.59185113251705e-17
lhumerus -29.51209936798337 3.054697112343335 80.40869085556066
lradius 27.580364657072153
lwrist 8.286899246917779
lhand -28.7556373401626 20.52042927645501
lfingers 7.125020000000001
lthumb -2.4442541944851164 49.959794237533785
rclavicle 3.053763410275494e-16 5.934469658927861e-17
rhumerus -32.10219892887793 -20.505661216789793 -79.57740143714092
rradius 31.206439789620497
rwrist 1.6166402254511634
rhand -17.73174281488506 22.99679762919002
rfingers 7.125020000000001
rthumb 8.569640409229898 -6.779656897469577
40
root 1.0235758925415634 17.449850324094683 10.736178434728826 -3.149236879045982 -4.039989794513542 0.712858998401046
lfemur -0.4141674780984532 0.07912090383339576 -24.87059077866611
ltibia 32.864190142259275
lfoot -14.219686321717552 1.5151976664156788
ltoes -4.0972639305732095
rfemur -28.594478415845103 -3.9057401757868435 22.1441497330331
rtibia 31.21487943077421
rfoot -0.6752308593807745 -14.733675690835273
rtoes 2.522225585939531
lowerback 12.61487194859299 0.6186363590017574 -0.716535861400559
upperback -0.01770664596239961 0.7679118306810941 1.3637716276424956
thorax -6.8482253403978035 0.3907880556883532 1.9429222886336786
lowerneck -16.643177776362148 -2.9567847672332768 -1.9545697519053349
upperneck 20.390760339081684 -3.7195683167846467 1.2835585020206377
head 9.254233409821783 -1.8155369543731679 0.3025911172883377
lclavicle 2.9968425510654927e-16 5.581961185450712e-17
lhumerus -29.163271774888596 2.318200261133223 80.4449417115367
lradius 29.050142452292548
lwrist 9.080258116987958
lhand -29.00032558213007 21.065478663548852
lfingers 7.125020000000001
lthumb -2.486398564152946 50.97266192351608
rclavicle 3.055321780306603e-16 5.950753939609008e-17
rhumerus -33.19799058822544 -19.869382803707236 -79.50071312851483
rradius 31.72322917401545
rwrist 1.3648622636525096
rhand -17.69531031569972 22.67186276280177
rfingers 7.125020000000001
rthumb 8.602590880347739 -7.08603146494915
41
root 0.8998958994765448 17.625360004429428 12.397491955662389 -3.0367235665157244 -2.372038313839665 0.6107595138863511
lfemur 0.8409861857687089 -0.15581759850735732 -24.795919078417878
ltibia 32.274700954099515
lfoot -14.838192664625774 0.8035448333710731
ltoes -5.086364737548624
rfemur -28.184885632874767 -2.802243378263939 21.90488731812153
rtibia 23.816928750205243
rfoot -1.4164845676691096 -14.911171902656514
rtoes 2.202918038890521
lowerback 11.951340394350884 0.08441621423757717 -1.1728400086988284
upperback 0.02450538507442658 0.08454978193922313 1.3811091911809554
thorax -6.77200986982052 0.08357478226224957 2.3238359407399605
lowerneck -16.77253321504145 -2.9085341970295495 -1.9497597472717556
upperneck 20.310121331319436 -3.636931002422063 1.246880463960747
head 9.24414159298154 -1.785360481634648 0.3096681255865209
lclavicle 2.98906010980463e-16 5.527514978811436e-17
lhumerus -29.06937034629804 1.5839206030014434 80.47727451612026
lradius 30.597726946719987
lwrist 9.886186601615545
lhand -29.30119804475998 21.196122040219223
lfingers 7.125020000000001
lthumb -2.6771385599347868 51.31780327404588
rclavicle 3.05585173078426e-16 5.958029995054309e-17
rhumerus -34.12343397148832 -19.815917297043793 -79.14818375424844
rradius 31.47384080717603
rwrist 1.7103654894902007
rhand -17.568580835067042 22.677557723246604
rfingers 7.125020000000001
rthumb 8.708358627957782 -7.032142609403091
42
root 0.7109649700752724 17.56594322147519 11.39974491312045 -2.7724187367832736 -0.5458688622199043 -0.016563248140266662
lfemur 1.7697806315165545 -0.029680041314132044 -23.85777849851307
ltibia 32.41889921932285
lfoot -13.827662122350134 0.5570519619621854
ltoes -7.02460432855551
rfemur -27.989181286127657 -0.29697680604247223 21.81031704149093
rtibia 19.822132328718148
rfoot -3.1245474762705614 -14.135382747522117
rtoes 2.491295700837825
lowerback 11.5561310022278 -0.49190279172706597 -1.3190556945821663
upperback -0.08257141634329873 -0.6913668267457678 1.5108626241665346
thorax -6.700723786794748 -0.2668345970626188 2.820644441620896
lowerneck -16.90071270577919 -2.879620535976761 -1.9630604066541726
upperneck 20.41588716467643 -3.578566217667041 1.2274280351903124
head 9.287990130719562 -1.7535920691279108 0.3120898051865438
lclavicle 2.98361855342036e-16 5.488918906161563e-17
lhumerus -29.182110177766393 0.7642894051152265 80.55366075903346
lradius 32.17954044837424
lwrist 10.744933976029785
lhand -29.74189828988282 20.839320533025255
lfingers 7.125020000000001
lthumb -3.0912328678575003 50.931722778780426
rclavicle 3.0599461245122476e-16 5.994691304657322e-17
rhumerus -35.03010133614359 -20.405197630313094 -78.47016297974618
rradius 30.612812495814083
rwrist 2.3928642502167405
rhand -17.540477114314474 23.060461761329098
rfingers 7.125020000000001
rthumb 8.73198225496638 -6.74929914179675
43
root 0.5123508302734652 17.5541147152296 10.92464715257199 -3.030364808092762 0.9685096564824901 -1.200368744120625
lfemur 1.2544886349576627 -0.22122549687454018 -22.0456737466443
ltibia 34.59644331052989
lfoot -11.428309913921636 -0.5667329458794823
ltoes -9.287999973201416
rfemur -27.852230187734655 3.1652679250404585 22.1330205337813
rtibia 18.991402809060382
rfoot -4.467662304106817 -12.802438223076742
rtoes 3.4899161736990454
lowerback 11.675383893250254 -0.9390921459050929 -0.9477239734368481
upperback -0.22160939634503984 -1.232444943104555 1.7586471034072795
thorax -6.612770002370741 -0.5198639005324046 3.295319810760554
lowerneck -16.992997505110463 -2.884825037607252 -2.0044212071404166
upperneck 20.56220373189736 -3.584126464401048 1.1520006247964045
head 9.342609191023275 -1.7495615384365717 0.28200594314795585
lclavicle 2.9839214622584667e-16 5.4914180784353644e-17
lhumerus -29.366659756311165 0.1835953673139179 80.68089074147409
lradius 33.42718454256517
lwrist 11.353169180665692
lhand -30.322507695574206 19.930403123420266
lfingers 7.125020000000001
lthumb -3.6205270383337584 50.07863753282083
rclavicle 3.0672246150365816e-16 6.052141291618597e-17
rhumerus -35.97219006653559 -21.435561575072555 -77.54333101477457
rradius 29.47591655312487
rwrist 3.1240807411086355
rhand -17.647513317748356 23.342137177731242
rfingers 7.125020000000001
rthumb 8.627549475511666 -6.588515089661198
